<svg xmlns="http://www.w3.org/2000/svg" xmlns:xlink="http://www.w3.org/1999/xlink" version="1.1" x="0px" y="0px" viewBox="0 0 512 640" style="enable-background:new 0 0 512 512;" xml:space="preserve"><g><g><g><g><path d="M486.008,491.001h-240c-2.761,0-5-2.238-5-5s2.239-5,5-5h240c2.761,0,5,2.238,5,5      S488.769,491.001,486.008,491.001z"/></g><g><path d="M136.008,491.001h-110c-2.761,0-5-2.238-5-5s2.239-5,5-5h110c2.761,0,5,2.238,5,5      S138.769,491.001,136.008,491.001z"/></g><g><path d="M106.008,491.001h-50c-2.761,0-5-2.238-5-5v-260c0-1.644,0.024-3.281,0.062-4.915      c0.064-2.761,2.327-4.949,5.115-4.882c2.761,0.064,4.947,2.354,4.882,5.115c-0.036,1.557-0.059,3.117-0.059,4.682v255h40v-255      c0-0.651,0.011-1.3,0.022-1.948l0.009-0.544c0.044-2.761,2.308-4.968,5.079-4.92c2.761,0.044,4.964,2.317,4.92,5.079l-0.01,0.56      c-0.01,0.591-0.021,1.182-0.021,1.775v260C111.008,488.763,108.769,491.001,106.008,491.001z"/></g><g><path d="M456.008,491.001h-50c-2.761,0-5-2.238-5-5v-260c0-74.4-55.715-136.387-129.598-144.186      c-2.746-0.29-4.737-2.751-4.447-5.497c0.29-2.746,2.74-4.739,5.497-4.447c37.847,3.995,72.82,21.798,98.476,50.129      c25.841,28.537,40.072,65.471,40.072,104.001v255h40v-255c0-107.523-87.477-195-195-195c-9.806,0-19.675,0.739-29.333,2.195      c-2.729,0.41-5.278-1.467-5.69-4.198c-0.412-2.73,1.468-5.278,4.199-5.689c10.149-1.531,20.521-2.308,30.824-2.308      c113.038,0,205,91.962,205,205v260C461.008,488.763,458.769,491.001,456.008,491.001z"/></g><g><path d="M229.375,340.79c-0.077,0-0.155-0.002-0.232-0.006l-45.199-2.102      c-13.248-0.616-23.525-11.896-22.909-25.143c0.298-6.417,3.078-12.335,7.827-16.662c4.75-4.326,10.906-6.555,17.316-6.246      l2.142,0.099l0.1-2.143c0.298-6.417,3.078-12.335,7.827-16.662c4.749-4.326,10.896-6.542,17.316-6.247      c6.417,0.298,12.334,3.078,16.662,7.827c4.327,4.749,6.545,10.898,6.247,17.315l-2.102,45.2      c-0.062,1.324-0.647,2.57-1.627,3.464C231.82,340.327,230.618,340.79,229.375,340.79z M185.044,300.605      c-3.506,0-6.839,1.287-9.448,3.665c-2.774,2.527-4.398,5.984-4.573,9.734c-0.36,7.739,5.644,14.329,13.384,14.689l40.205,1.869      l1.869-40.206c0.174-3.749-1.122-7.341-3.65-10.115c-2.528-2.775-5.985-4.398-9.734-4.573      c-3.749-0.178-7.342,1.122-10.117,3.649c-2.774,2.528-4.398,5.984-4.572,9.734l-0.332,7.137c-0.128,2.758-2.47,4.91-5.226,4.762      l-7.137-0.331C185.49,300.61,185.267,300.605,185.044,300.605z"/></g><g><path d="M147.644,431.001c-1.243,0-2.445-0.463-3.368-1.304c-0.98-0.894-1.565-2.14-1.627-3.464l-1.62-34.843      c-0.504-10.844,7.908-20.075,18.75-20.579c10.854-0.5,20.076,7.906,20.58,18.75l0.023,0.508l0.506-0.023      c10.875-0.503,20.076,7.906,20.58,18.75c0.504,10.844-7.908,20.075-18.751,20.579l-34.842,1.62      C147.799,430.999,147.722,431.001,147.644,431.001z M160.701,380.79c-0.151,0-0.303,0.003-0.456,0.01      c-5.335,0.249-9.474,4.791-9.226,10.126l1.388,29.849l29.848-1.388c5.335-0.249,9.475-4.791,9.227-10.126      c-0.12-2.585-1.24-4.968-3.152-6.71s-4.387-2.63-6.974-2.517l-5.501,0.256c-1.329,0.066-2.62-0.405-3.6-1.298      c-0.98-0.894-1.565-2.14-1.627-3.465l-0.255-5.502C170.13,384.844,165.836,380.79,160.701,380.79z"/></g><g><circle cx="206.008" cy="226.001" r="10"/></g><g><circle cx="146.008" cy="265.79" r="10"/></g><g><circle cx="236.008" cy="375.79" r="10"/></g><g><g><path d="M146.401,155.101c-7.745,0-15.365-2.962-21.134-8.555c-10.98,8.592-26.667,8.718-37.899-0.388       c-11.232-9.106-14.353-24.481-8.216-37c-11.565-7.787-16.533-22.667-11.343-36.164c5.19-13.498,18.853-21.217,32.65-19.247       c3.832-13.406,16.448-22.718,30.889-21.964c14.44,0.766,26.001,11.37,28.395,25.105c13.935-0.514,26.698,8.619,30.434,22.59       c0,0,0,0,0,0c3.734,13.97-2.778,28.242-15.102,34.762c4.78,13.098,0.052,28.056-12.08,35.925       C157.855,153.499,152.094,155.1,146.401,155.101z M125.649,134.337c0.088,0,0.176,0.002,0.265,0.007       c1.526,0.081,2.932,0.855,3.815,2.103c6.364,8.981,18.584,11.323,27.825,5.329c9.24-5.993,12.087-18.107,6.48-27.579       c-0.779-1.315-0.913-2.915-0.364-4.341c0.549-1.427,1.72-2.524,3.179-2.979c10.508-3.275,16.511-14.176,13.667-24.815l0,0       c-2.844-10.64-13.482-17.09-24.227-14.686c-1.488,0.334-3.053-0.033-4.241-0.996c-1.188-0.962-1.869-2.416-1.851-3.944       c0.132-11.005-8.38-20.083-19.378-20.666c-11.025-0.599-20.421,7.544-21.454,18.503c-0.144,1.522-0.975,2.895-2.257,3.726       c-1.282,0.832-2.874,1.032-4.323,0.542c-10.427-3.527-21.69,1.764-25.643,12.043c-3.953,10.28,0.864,21.754,10.967,26.122       c1.403,0.606,2.452,1.821,2.847,3.298c0.395,1.477,0.092,3.053-0.821,4.279c-6.576,8.826-5.025,21.173,3.53,28.109       c8.556,6.937,20.955,5.9,28.232-2.359C122.85,134.951,124.218,134.337,125.649,134.337z"/></g><g><path d="M232.128,144.362c-7.745,0-15.365-2.961-21.134-8.555c-10.979,8.594-26.666,8.72-37.899-0.387       c-2.007-1.627-3.802-3.506-5.337-5.585c-1.64-2.222-1.168-5.352,1.054-6.992c2.222-1.639,5.352-1.168,6.992,1.054       c1.032,1.398,2.24,2.662,3.589,3.756c8.555,6.936,20.957,5.9,28.231-2.359c1.011-1.147,2.494-1.756,4.017-1.688       c1.526,0.081,2.932,0.855,3.815,2.103c6.362,8.982,18.585,11.322,27.824,5.33c9.24-5.993,12.087-18.108,6.48-27.58       c-0.779-1.315-0.913-2.915-0.364-4.341c0.549-1.427,1.72-2.524,3.179-2.979c10.508-3.275,16.511-14.176,13.667-24.816       c-2.844-10.639-13.487-17.089-24.226-14.685c-1.491,0.335-3.054-0.033-4.242-0.996c-1.187-0.962-1.869-2.415-1.851-3.944       c0.132-11.006-8.38-20.084-19.378-20.667c-10.995-0.59-20.421,7.545-21.453,18.503c-0.144,1.522-0.975,2.895-2.257,3.726       s-2.874,1.032-4.323,0.542c-9.685-3.276-20.388,1.169-24.894,10.339c-1.218,2.478-4.213,3.499-6.692,2.282       c-2.479-1.218-3.5-4.214-2.283-6.692c5.861-11.928,18.755-18.492,31.54-16.711c3.828-13.412,16.441-22.747,30.892-21.975       c14.44,0.766,26.001,11.37,28.395,25.105c13.914-0.498,26.699,8.62,30.434,22.59c3.734,13.97-2.778,28.242-15.102,34.762       c4.78,13.098,0.052,28.057-12.08,35.925C243.582,142.761,237.821,144.362,232.128,144.362z"/></g><g><circle cx="126.341" cy="93.651" r="10"/></g><g><circle cx="215.226" cy="83.678" r="10"/></g><g><circle cx="80.988" cy="170.743" r="10"/></g></g><g><path d="M406.008,371.001h-10c-68.925,0-125-56.075-125-125V76.843c0-2.761,2.239-5,5-5s5,2.239,5,5v169.158      c0,63.411,51.589,115,115,115h10c2.761,0,5,2.238,5,5S408.769,371.001,406.008,371.001z"/></g><g><path d="M406.006,364.173c-0.553,0-1.115-0.092-1.667-0.287c-49.843-17.617-83.331-64.991-83.331-117.885      V93.307c0-2.761,2.239-5,5-5s5,2.239,5,5v152.693c0,48.663,30.809,92.249,76.664,108.457c2.604,0.92,3.968,3.776,3.048,6.38      C409.995,362.89,408.065,364.173,406.006,364.173z"/></g><g><path d="M276.008,491.001c-2.761,0-5-2.238-5-5c0-68.925,56.075-125,125-125h10c2.761,0,5,2.238,5,5      s-2.239,5-5,5h-10c-63.411,0-115,51.589-115,115C281.008,488.763,278.769,491.001,276.008,491.001z"/></g></g><g><path d="M101.637,228.997c-7.745,0-15.365-2.962-21.134-8.555c-10.98,8.593-26.668,8.718-37.899-0.387     c-11.232-9.107-14.353-24.481-8.215-37c-11.566-7.787-16.534-22.667-11.344-36.164c5.191-13.5,18.852-21.221,32.662-19.246     c3.589-12.395,14.839-21.496,28.121-21.983c2.744-0.109,5.079,2.054,5.18,4.813s-2.054,5.079-4.813,5.18     c-10.21,0.375-18.633,8.333-19.591,18.514c-0.144,1.522-0.975,2.895-2.257,3.726c-1.282,0.832-2.875,1.032-4.323,0.542     c-10.425-3.525-21.69,1.764-25.643,12.043c-3.953,10.28,0.865,21.753,10.968,26.121c1.403,0.606,2.452,1.821,2.847,3.298     c0.395,1.477,0.092,3.053-0.821,4.279c-6.576,8.826-5.025,21.173,3.53,28.11c8.556,6.936,20.956,5.899,28.232-2.359     c1.011-1.147,2.49-1.759,4.016-1.688c1.526,0.081,2.932,0.855,3.815,2.103c6.363,8.982,18.585,11.322,27.825,5.329     s12.086-18.107,6.48-27.579c-0.779-1.315-0.913-2.915-0.364-4.341c0.549-1.427,1.72-2.524,3.179-2.979     c8.459-2.637,14.232-10.357,14.365-19.212c0-0.021,0.001-0.043,0.001-0.065c-0.023-3.643-0.958-7.236-2.707-10.4     c-1.335-2.417-0.459-5.459,1.958-6.795c2.417-1.335,5.459-0.459,6.795,1.958c2.587,4.682,3.955,10,3.955,15.377     c0,0.083-0.002,0.167-0.006,0.25c-0.23,11.189-6.508,21.141-16.136,26.248c4.782,13.098,0.055,28.059-12.078,35.928     C113.091,227.395,107.33,228.996,101.637,228.997z"/></g></g></g><text x="0" y="527" fill="#000000" font-size="5px" font-weight="bold" font-family="'Helvetica Neue', Helvetica, Arial-Unicode, Arial, Sans-serif">Created by Icon Market</text><text x="0" y="532" fill="#000000" font-size="5px" font-weight="bold" font-family="'Helvetica Neue', Helvetica, Arial-Unicode, Arial, Sans-serif">from the Noun Project</text></svg>